<svg width="54" height="53" viewBox="0 0 54 53" fill="none" xmlns="http://www.w3.org/2000/svg">
<path d="M33.1218 8.89195V17.2203H29.8343V8.89195C29.8343 8.3002 29.3083 8.01528 28.9576 8.01528C28.848 8.01528 28.7384 8.0372 28.6289 8.08103L11.2489 14.6341C10.0874 15.0724 9.34219 16.1683 9.34219 17.4175V18.8859C7.34777 20.3763 6.05469 22.7652 6.05469 25.4609V17.4175C6.05469 14.8094 7.6546 12.4863 10.0874 11.5658L27.4892 4.99078C27.9714 4.81545 28.4754 4.72778 28.9576 4.72778C31.1493 4.72778 33.1218 6.50303 33.1218 8.89195Z" fill="#5C6B28"/>
<path d="M47.6983 32.0138V34.2055C47.6983 34.7972 47.2381 35.2794 46.6244 35.3013H43.4246C42.263 35.3013 41.211 34.4466 41.1233 33.3069C41.0576 32.6275 41.3206 31.9919 41.7589 31.5536C42.1534 31.1371 42.7013 30.918 43.2931 30.918H46.6025C47.2381 30.9399 47.6983 31.4221 47.6983 32.0138Z" fill="#5C6B28"/>
<path d="M43.2692 28.6164H45.5047C46.7101 28.6164 47.6964 27.6301 47.6964 26.4247V25.4604C47.6964 20.9236 43.9924 17.2197 39.4557 17.2197H14.2954C12.4324 17.2197 10.7229 17.8334 9.34219 18.8854C7.34777 20.3757 6.05469 22.7646 6.05469 25.4604V40.2103C6.05469 44.7471 9.7586 48.451 14.2954 48.451H39.4557C43.9924 48.451 47.6964 44.7471 47.6964 40.2103V39.7939C47.6964 38.5885 46.7101 37.6022 45.5047 37.6022H43.5979C41.4939 37.6022 39.4776 36.3091 38.9297 34.2709C38.4694 32.6052 39.0174 31.0053 40.1132 29.9314C40.9241 29.0986 42.0419 28.6164 43.2692 28.6164ZM31.2589 28.1781H15.9172C15.0186 28.1781 14.2734 27.4329 14.2734 26.5343C14.2734 25.6357 15.0186 24.8906 15.9172 24.8906H31.2589C32.1574 24.8906 32.9026 25.6357 32.9026 26.5343C32.9026 27.4329 32.1574 28.1781 31.2589 28.1781Z" fill="#5C6B28"/>
</svg>
