<svg width="25" height="25" viewBox="0 0 25 25" fill="none" xmlns="http://www.w3.org/2000/svg">
<path d="M17.661 11.7108C17.231 11.7108 16.891 11.3608 16.891 10.9408C16.891 10.5708 16.521 9.80079 15.901 9.13079C15.291 8.48079 14.621 8.10079 14.061 8.10079C13.631 8.10079 13.291 7.75079 13.291 7.33079C13.291 6.91079 13.641 6.56079 14.061 6.56079C15.061 6.56079 16.111 7.10079 17.031 8.07079C17.891 8.98079 18.441 10.1108 18.441 10.9308C18.441 11.3608 18.091 11.7108 17.661 11.7108Z" fill="#FCFCFC"/>
<path d="M21.2708 11.7107C20.8408 11.7107 20.5008 11.3607 20.5008 10.9407C20.5008 7.39069 17.6108 4.51069 14.0708 4.51069C13.6408 4.51069 13.3008 4.16069 13.3008 3.74069C13.3008 3.32069 13.6408 2.96069 14.0608 2.96069C18.4608 2.96069 22.0408 6.54069 22.0408 10.9407C22.0408 11.3607 21.6908 11.7107 21.2708 11.7107Z" fill="#FCFCFC"/>
<path d="M11.091 15.9107L9.24102 17.7607C8.85102 18.1507 8.23102 18.1507 7.83102 17.7707C7.72102 17.6607 7.61102 17.5607 7.50102 17.4507C6.47102 16.4107 5.54102 15.3207 4.71102 14.1807C3.89102 13.0407 3.23102 11.9007 2.75102 10.7707C2.28102 9.63069 2.04102 8.54069 2.04102 7.50069C2.04102 6.82069 2.16102 6.17069 2.40102 5.57069C2.64102 4.96069 3.02102 4.40069 3.55102 3.90069C4.19102 3.27069 4.89102 2.96069 5.63102 2.96069C5.91102 2.96069 6.19102 3.02069 6.44102 3.14069C6.70102 3.26069 6.93102 3.44069 7.11102 3.70069L9.43102 6.97069C9.61102 7.22069 9.74102 7.45069 9.83102 7.67069C9.92102 7.88069 9.97102 8.09069 9.97102 8.28069C9.97102 8.52069 9.90102 8.76069 9.76102 8.99069C9.63102 9.22069 9.44102 9.46069 9.20102 9.70069L8.44102 10.4907C8.33102 10.6007 8.28102 10.7307 8.28102 10.8907C8.28102 10.9707 8.29102 11.0407 8.31102 11.1207C8.34102 11.2007 8.37102 11.2607 8.39102 11.3207C8.57102 11.6507 8.88102 12.0807 9.32102 12.6007C9.77102 13.1207 10.251 13.6507 10.771 14.1807C10.871 14.2807 10.981 14.3807 11.081 14.4807C11.481 14.8707 11.491 15.5107 11.091 15.9107Z" fill="#FCFCFC"/>
<path d="M22.0106 19.2907C22.0106 19.5707 21.9606 19.8607 21.8606 20.1407C21.8306 20.2207 21.8006 20.3007 21.7606 20.3807C21.5906 20.7407 21.3706 21.0807 21.0806 21.4007C20.5906 21.9407 20.0506 22.3307 19.4406 22.5807C19.4306 22.5807 19.4206 22.5907 19.4106 22.5907C18.8206 22.8307 18.1806 22.9607 17.4906 22.9607C16.4706 22.9607 15.3806 22.7207 14.2306 22.2307C13.0806 21.7407 11.9306 21.0807 10.7906 20.2507C10.4006 19.9607 10.0106 19.6707 9.64062 19.3607L12.9106 16.0907C13.1906 16.3007 13.4406 16.4607 13.6506 16.5707C13.7006 16.5907 13.7606 16.6207 13.8306 16.6507C13.9106 16.6807 13.9906 16.6907 14.0806 16.6907C14.2506 16.6907 14.3806 16.6307 14.4906 16.5207L15.2506 15.7707C15.5006 15.5207 15.7406 15.3307 15.9706 15.2107C16.2006 15.0707 16.4306 15.0007 16.6806 15.0007C16.8706 15.0007 17.0706 15.0407 17.2906 15.1307C17.5106 15.2207 17.7406 15.3507 17.9906 15.5207L21.3006 17.8707C21.5606 18.0507 21.7406 18.2607 21.8506 18.5107C21.9506 18.7607 22.0106 19.0107 22.0106 19.2907Z" fill="#FCFCFC"/>
</svg>
