<svg width="27" height="28" viewBox="0 0 27 28" fill="none" xmlns="http://www.w3.org/2000/svg">
<path d="M19.127 2.75H7.87695C4.77035 2.75 2.25195 5.2684 2.25195 8.375V19.625C2.25195 22.7316 4.77035 25.25 7.87695 25.25H19.127C22.2336 25.25 24.752 22.7316 24.752 19.625V8.375C24.752 5.2684 22.2336 2.75 19.127 2.75Z" fill="#FCFCFC"/>
<path d="M18.0002 13.2911C18.139 14.2274 17.9791 15.1836 17.5431 16.0237C17.1072 16.8639 16.4174 17.5452 15.572 17.9707C14.7265 18.3963 13.7684 18.5444 12.8339 18.394C11.8994 18.2437 11.0361 17.8024 10.3669 17.1332C9.69757 16.4639 9.25636 15.6006 9.10598 14.6661C8.95561 13.7316 9.10373 12.7735 9.52928 11.928C9.95482 11.0826 10.6361 10.3928 11.4763 9.95687C12.3164 9.52094 13.2726 9.36101 14.2089 9.49985C15.1639 9.64147 16.0481 10.0865 16.7308 10.7692C17.4135 11.4519 17.8585 12.3361 18.0002 13.2911Z" fill="#FFAA33"/>
<path d="M19.6875 7.8125H19.6993" stroke="#FFAA33" stroke-width="2.25" stroke-linecap="round" stroke-linejoin="round"/>
</svg>
