<svg width="32" height="32" viewBox="0 0 32 32" fill="none" xmlns="http://www.w3.org/2000/svg">
<path fill-rule="evenodd" clip-rule="evenodd" d="M14.6193 3.31421C20.9578 3.31421 26.0961 8.45253 26.0961 14.791C26.0961 17.5005 25.1572 19.9907 23.5869 21.954L28.273 26.6412C28.771 27.1392 28.771 27.9466 28.273 28.4446C27.8133 28.9043 27.09 28.9397 26.5897 28.5507L26.4696 28.4446L21.7823 23.7585C19.8191 25.3288 17.3289 26.2677 14.6193 26.2677C8.2809 26.2677 3.14258 21.1294 3.14258 14.791C3.14258 8.45253 8.2809 3.31421 14.6193 3.31421ZM14.6195 5.86476C9.68961 5.86476 5.69313 9.86124 5.69313 14.7911C5.69313 19.721 9.68961 23.7175 14.6195 23.7175C19.5494 23.7175 23.5459 19.721 23.5459 14.7911C23.5459 9.86124 19.5494 5.86476 14.6195 5.86476Z" fill="#FCFCFC"/>
</svg>
