<svg width="96" height="96" viewBox="0 0 96 96" fill="none" xmlns="http://www.w3.org/2000/svg">
<path d="M67.5089 79.4861C67.5089 72.9438 58.6696 67.6403 47.7659 67.6403C36.8621 67.6403 28.0229 72.9438 28.0229 79.4861M83.3033 67.6398C83.3033 62.7823 78.4303 58.6076 71.4575 56.7797M12.2285 67.6398C12.2285 62.7823 17.1015 58.6076 24.0743 56.7797M71.4575 40.9324C73.8809 38.7633 75.4061 35.6112 75.4061 32.1029C75.4061 25.5606 70.1025 20.2571 63.5603 20.2571C60.5264 20.2571 57.7588 21.3976 55.6631 23.2734M24.0743 40.9324C21.6509 38.7633 20.1257 35.6112 20.1257 32.1029C20.1257 25.5606 25.4293 20.2571 31.9715 20.2571C35.0054 20.2571 37.773 21.3976 39.8687 23.2734M47.7659 55.7945C41.2236 55.7945 35.9201 50.4909 35.9201 43.9487C35.9201 37.4064 41.2236 32.1029 47.7659 32.1029C54.3081 32.1029 59.6117 37.4064 59.6117 43.9487C59.6117 50.4909 54.3081 55.7945 47.7659 55.7945Z" stroke="#FCFCFC" stroke-width="6.43925" stroke-linecap="round" stroke-linejoin="round"/>
</svg>
