<svg width="32" height="32" viewBox="0 0 32 32" fill="none" xmlns="http://www.w3.org/2000/svg">
<path d="M22.0196 7.80185C21.1128 6.76666 20.6131 5.43722 20.6135 4.06104H16.5145V20.51C16.4829 21.4002 16.1071 22.2433 15.4662 22.8619C14.8254 23.4805 13.9695 23.8262 13.0788 23.8263C11.1951 23.8263 9.62982 22.2876 9.62982 20.3774C9.62982 18.0957 11.8319 16.3845 14.1002 17.0876V12.8957C9.5237 12.2855 5.51758 15.8406 5.51758 20.3774C5.51758 24.7947 9.1788 27.9386 13.0655 27.9386C17.2308 27.9386 20.6135 24.5559 20.6135 20.3774V12.0335C22.2756 13.2272 24.2712 13.8676 26.3176 13.8641V9.76512C26.3176 9.76512 23.8237 9.88451 22.0196 7.80185Z" fill="#FCFCFC"/>
</svg>
