<svg width="95" height="96" viewBox="0 0 95 96" fill="none" xmlns="http://www.w3.org/2000/svg">
<path d="M31.8213 48.1493L43.576 59.9039L63.1671 36.3946M78.84 29.3416V66.9565C78.84 71.3454 78.8409 73.5402 77.9867 75.2165C77.2354 76.691 76.035 77.8895 74.5605 78.6408C72.8842 79.4949 70.6913 79.4951 66.3025 79.4951H28.6875C24.2987 79.4951 22.1027 79.4949 20.4263 78.6408C18.9518 77.8895 17.7539 76.691 17.0026 75.2165C16.1484 73.5402 16.1484 71.3454 16.1484 66.9565V29.3416C16.1484 24.9528 16.1484 22.7586 17.0026 21.0823C17.7539 19.6078 18.9518 18.4089 20.4263 17.6576C22.1027 16.8035 24.2987 16.8035 28.6875 16.8035H66.3025C70.6913 16.8035 72.8842 16.8035 74.5605 17.6576C76.035 18.4089 77.2354 19.6078 77.9867 21.0823C78.8409 22.7586 78.84 24.9528 78.84 29.3416Z" stroke="#FCFCFC" stroke-width="7.83645" stroke-linecap="round" stroke-linejoin="round"/>
</svg>
