<svg width="345" height="95" viewBox="0 0 345 95" fill="none" xmlns="http://www.w3.org/2000/svg">
<path d="M86.7948 0.613527C85.8347 3.66243 83.4068 9.70185 81.1469 14.6598C73.8983 30.5663 63.0231 46.1625 50.7902 58.1944L45.2579 63.6362L47.2192 59.6785C50.2531 53.5579 51.0049 50.2646 50.9474 43.353C50.9112 38.9546 50.6503 36.6477 49.9422 34.4483L48.9861 31.48L46.6524 35.9804C39.0412 50.6574 27.3592 62.4355 12.8505 70.06C10.9413 71.0638 9.26764 72.0052 9.13127 72.1526C8.99489 72.3 10.7643 72.262 13.0633 72.068C18.065 71.646 24.2598 69.9304 29.1207 67.6206C31.075 66.692 32.7457 66.0039 32.8335 66.0914C33.0919 66.3487 30.0847 72.7225 28.4705 75.3395C27.6528 76.6654 26.9838 77.8799 26.9838 78.0387C26.9838 78.5814 33.1781 77.6216 37.3978 76.4249C46.4758 73.8505 56.9374 67.3287 61.7586 61.2383C62.9522 59.7304 64.071 58.4848 64.2445 58.4694C64.4181 58.4541 64.8282 59.9442 65.156 61.781C65.9326 66.131 66.1434 66.8518 66.6388 66.8518C68.1131 66.8518 81.078 44.0481 85.4291 33.8022L86.5434 31.1777L88.9222 36.0303C93.247 44.8525 98.5933 52.3231 105.28 58.886C111.335 64.8299 120.293 71.6198 121.278 71.0123C121.511 70.8684 121.701 69.7676 121.701 68.565V66.3793L125.821 69.0582C134.636 74.7904 142.378 78.2578 151.952 80.763C155.088 81.5838 158.045 82.3664 158.522 82.502C160.588 83.0902 159.106 81.6263 155.795 79.8083C146.124 74.4985 134.086 63.7069 127.543 54.4826C124.205 49.7769 118.372 39.0461 117.259 35.5614C116.932 34.5413 116.469 33.7062 116.228 33.7062C115.358 33.7062 113.664 40.4422 113.428 44.8372C113.227 48.5708 113.384 49.9485 114.395 53.3709C115.059 55.6154 115.544 57.4523 115.473 57.4523C115.011 57.4523 111.196 49.1491 110.293 46.1798C109.501 43.5752 108.474 41.6532 106.592 39.2539C98.7505 29.2543 92.1436 16.4903 88.7348 4.75574C87.3681 0.0510409 87.131 -0.455542 86.7948 0.613527Z" fill="#FCFCFC"/>
<path d="M85.0879 61.1839C83.2059 68.4636 81.983 72.9991 81.872 73.1099C81.801 73.1806 81.2149 71.6901 80.5687 69.7978C79.923 67.9055 79.2323 66.3571 79.0339 66.3571C78.8355 66.3571 78.1661 67.6374 77.5462 69.2017C76.9268 70.766 76.2727 72.2159 76.0937 72.4237C75.9142 72.6315 75.3801 71.5738 74.906 70.0739C74.4319 68.5739 73.8676 67.3465 73.6523 67.3465C73.4366 67.3465 72.6318 68.9048 71.8631 70.8095C71.1624 72.5462 70.886 73.4276 70.2864 73.889C69.5762 74.4356 68.4125 74.3929 65.5527 74.4847C64.6294 74.5139 64.246 73.9613 63.1972 71.0915C62.5084 69.2056 61.7219 67.6987 61.4491 67.7428C61.1764 67.7863 60.2773 69.4406 59.4516 71.4185L57.95 75.0145L55.4844 75.3816C54.1281 75.5834 49.1135 76.3092 44.3405 76.9943C39.5674 77.6795 33.0289 78.8203 29.81 79.5293C26.5916 80.2387 23.8884 80.7368 23.8031 80.6374C23.7178 80.538 23.2085 79.1206 22.6714 77.4881C22.1339 75.8555 21.4897 74.5624 21.2398 74.6148C20.9893 74.6672 20.1627 76.2256 19.4019 78.0778C18.6417 79.93 17.7491 81.7005 17.4183 82.0122C16.9021 82.499 7.54289 85.4648 2.89081 86.6155C2.05026 86.8232 0.934471 87.2626 0.411293 87.591C-0.377195 88.0872 -0.117341 88.1382 1.94066 87.8923C34.8885 83.9525 52.0909 82.9808 83.0339 83.3123C107.252 83.572 119.477 84.2498 138.866 86.4082C150.312 87.6821 169.522 90.3075 172.839 91.0506C173.897 91.288 174.763 91.3212 174.763 91.1243C174.763 90.9279 169.686 89.0801 163.481 87.0187C153.467 83.6912 136.848 79.3442 130.628 78.4251C127.761 78.0011 127.378 77.6667 126.4 74.7291C125.954 73.3894 125.428 72.2936 125.231 72.2936C125.034 72.2936 124.416 73.3755 123.855 74.6984L122.837 77.1032L119.748 76.6367C118.049 76.3799 114.295 75.9099 111.407 75.5923L106.154 75.0145L104.809 71.3042C104.068 69.2635 103.277 67.6285 103.049 67.6705C102.821 67.7126 102.034 69.1596 101.299 70.8862L99.964 74.0251H97.8153H95.6665L94.3687 70.3148C93.6551 68.2741 92.8741 66.6346 92.6331 66.6712C92.3921 66.7083 91.6214 68.097 90.9202 69.7572C90.2185 71.418 89.5322 72.8887 89.3943 73.0263C89.2565 73.1638 88.5121 70.4394 87.74 66.972C86.0048 59.1823 85.7494 58.6248 85.0879 61.1839Z" fill="#FCFCFC"/>
<path d="M55.7462 88.4667C49.5489 88.7576 30.6838 90.1299 28.4715 90.4505L26.24 90.774L27.9756 91.1416C28.9302 91.3434 33.5049 91.855 38.1417 92.2784C69.029 95.0963 102.652 95.4703 133.078 93.3346C147.033 92.3551 147.539 92.134 138.066 91.153C129.06 90.2199 115.359 89.1568 105.585 88.6324C97.188 88.1817 64.1479 88.0719 55.7462 88.4667Z" fill="#FCFCFC"/>
<path d="M155.73 28.6259C157.223 28.6259 158.41 28.9309 159.293 29.5408C160.175 30.1378 160.617 31.0334 160.617 32.2274C160.617 33.1099 160.396 33.8497 159.955 34.4467C159.526 35.0307 158.936 35.472 158.183 35.7705C157.443 36.056 156.593 36.1988 155.633 36.1988L155.185 34.6803C156.366 34.6803 157.411 34.8425 158.319 35.167C159.241 35.4915 159.968 35.9587 160.5 36.5687C161.032 37.1657 161.298 37.886 161.298 38.7296C161.298 39.5083 161.155 40.1702 160.87 40.7153C160.597 41.2474 160.221 41.6822 159.741 42.0197C159.273 42.3441 158.741 42.5842 158.144 42.74C157.547 42.8827 156.931 42.9541 156.295 42.9541H151.525V28.6259H155.73ZM156.061 34.4856C156.619 34.4856 157.028 34.3169 157.288 33.9795C157.56 33.642 157.696 33.2592 157.696 32.8309C157.696 32.3377 157.528 31.9678 157.19 31.7212C156.866 31.4746 156.425 31.3513 155.867 31.3513H154.348V34.4856H156.061ZM156.159 40.326C156.574 40.326 156.95 40.274 157.288 40.1702C157.625 40.0534 157.891 39.8782 158.086 39.6446C158.281 39.398 158.378 39.093 158.378 38.7296C158.378 38.3143 158.261 38.0028 158.027 37.7952C157.794 37.5745 157.489 37.4253 157.112 37.3474C156.749 37.2565 156.366 37.2111 155.964 37.2111H154.348V40.326H156.159ZM162.02 42.9541L168.483 28.0613H168.639L175.102 42.9541H171.831L167.704 32.4805L169.748 31.0788L164.804 42.9541H162.02ZM166.439 37.7757H170.741L171.734 40.1507H165.563L166.439 37.7757ZM175.058 28.6259H184.714V31.3513H181.229V42.9541H178.406V31.3513H175.058V28.6259ZM189.969 37.6589C189.969 38.1131 190.105 38.5479 190.377 38.9632C190.65 39.3785 191.007 39.716 191.448 39.9755C191.902 40.2351 192.396 40.3649 192.928 40.3649C193.512 40.3649 194.031 40.2351 194.485 39.9755C194.939 39.716 195.296 39.3785 195.556 38.9632C195.828 38.5479 195.965 38.1131 195.965 37.6589V28.6259H198.749V37.7173C198.749 38.7685 198.489 39.703 197.97 40.5206C197.451 41.3253 196.75 41.9612 195.867 42.4285C194.985 42.8827 194.005 43.1098 192.928 43.1098C191.864 43.1098 190.89 42.8827 190.008 42.4285C189.138 41.9612 188.444 41.3253 187.925 40.5206C187.405 39.703 187.146 38.7685 187.146 37.7173V28.6259H189.969V37.6589ZM208.484 28.6259H211.306V40.2286H218.042V42.9541H208.484V28.6259ZM219.339 42.9541L225.802 28.0613H225.958L232.422 42.9541H229.151L225.024 32.4805L227.068 31.0788L222.123 42.9541H219.339ZM223.758 37.7757H228.061L229.054 40.1507H222.882L223.758 37.7757ZM231.154 28.7232H234.464L237.52 37.7173L237.073 37.5226L239.74 30.8841L241.044 34.7582L236.917 43.616L231.154 28.7232ZM238.338 28.7232H241.141L244.665 37.4253L244.159 37.3474L246.787 28.7232H249.824L244.295 43.5771L238.338 28.7232ZM248.731 42.9541L255.194 28.0613H255.35L261.813 42.9541H258.543L254.415 32.4805L256.46 31.0788L251.515 42.9541H248.731ZM253.15 37.7757H257.452L258.445 40.1507H252.274L253.15 37.7757ZM276.731 43.5381L265.868 33.7264L266.705 34.1936L266.764 42.9541H263.902V28.0613H264.019L274.648 37.8341L274.025 37.5615L273.967 28.6259H276.809V43.5381H276.731ZM292.121 41.5135C291.952 41.6952 291.686 41.8834 291.323 42.0781C290.96 42.2598 290.538 42.4285 290.058 42.5842C289.59 42.74 289.11 42.8633 288.617 42.9541C288.124 43.0579 287.657 43.1098 287.215 43.1098C286.047 43.1098 284.996 42.9411 284.061 42.6037C283.127 42.2533 282.329 41.7731 281.667 41.1631C281.005 40.5401 280.499 39.8068 280.148 38.9632C279.798 38.1196 279.623 37.1981 279.623 36.1988C279.623 34.888 279.818 33.7524 280.207 32.7919C280.609 31.8186 281.148 31.0139 281.823 30.378C282.511 29.729 283.296 29.2488 284.178 28.9373C285.074 28.6259 286.008 28.4701 286.982 28.4701C287.903 28.4701 288.747 28.5739 289.512 28.7816C290.278 28.9763 290.927 29.2229 291.459 29.5214L290.544 32.1495C290.311 32.0197 289.999 31.8899 289.61 31.7602C289.22 31.6304 288.825 31.5265 288.422 31.4487C288.02 31.3578 287.663 31.3124 287.352 31.3124C286.573 31.3124 285.885 31.4097 285.288 31.6044C284.691 31.7991 284.185 32.0911 283.769 32.4805C283.367 32.8698 283.062 33.3565 282.854 33.9405C282.647 34.5116 282.543 35.18 282.543 35.9457C282.543 36.6206 282.66 37.2306 282.893 37.7757C283.127 38.3078 283.451 38.7621 283.867 39.1384C284.295 39.5148 284.795 39.8003 285.366 39.995C285.95 40.1897 286.592 40.287 287.293 40.287C287.695 40.287 288.065 40.2611 288.403 40.2092C288.74 40.1443 289.026 40.0469 289.259 39.9171V38.1845H286.787V35.459H292.121V41.5135ZM305.747 39.9366C305.747 41.1825 305.5 42.2468 305.007 43.1293C304.514 44.0118 303.826 44.6867 302.943 45.154C302.074 45.6342 301.062 45.8937 299.907 45.9327V43.1877C300.789 43.1358 301.509 42.8633 302.067 42.3701C302.626 41.8769 302.905 41.0463 302.905 39.8782V28.6259H305.747V39.9366ZM307.457 42.9541L313.921 28.0613H314.076L320.54 42.9541H317.269L313.142 32.4805L315.186 31.0788L310.241 42.9541H307.457ZM311.876 37.7757H316.179L317.172 40.1507H311L311.876 37.7757ZM324.388 38.496L319.113 28.6259H322.597L326.296 36.0625L325.459 36.1209L329.1 28.6259H332.584L327.211 38.496V42.9541H324.388V38.496ZM330.955 42.9541L337.419 28.0613H337.574L344.038 42.9541H340.767L336.64 32.4805L338.684 31.0788L333.739 42.9541H330.955ZM335.375 37.7757H339.677L340.67 40.1507H334.499L335.375 37.7757Z" fill="#FCFCFC"/>
<path d="M157.982 61.812C157.852 61.9072 157.649 62.024 157.372 62.1624C157.095 62.3008 156.766 62.422 156.386 62.5258C156.014 62.621 155.598 62.6642 155.14 62.6556C154.404 62.6469 153.742 62.5171 153.154 62.2662C152.566 62.0067 152.068 61.6606 151.661 61.228C151.255 60.7867 150.939 60.2848 150.714 59.7224C150.498 59.1514 150.39 58.5457 150.39 57.9055C150.39 57.1873 150.502 56.5297 150.727 55.9327C150.952 55.3357 151.272 54.8209 151.687 54.3883C152.103 53.947 152.596 53.6053 153.167 53.363C153.738 53.1207 154.361 52.9996 155.036 52.9996C155.633 52.9996 156.165 53.0818 156.632 53.2462C157.108 53.4019 157.506 53.5793 157.826 53.7783L157.229 55.2059C156.987 55.0329 156.684 54.8642 156.321 54.6998C155.957 54.5354 155.546 54.4532 155.088 54.4532C154.672 54.4532 154.274 54.5397 153.894 54.7128C153.513 54.8771 153.18 55.1151 152.894 55.4266C152.609 55.7294 152.38 56.0841 152.207 56.4908C152.042 56.8975 151.96 57.3387 151.96 57.8146C151.96 58.3078 152.034 58.762 152.181 59.1774C152.336 59.584 152.553 59.9388 152.83 60.2416C153.115 60.5444 153.453 60.7824 153.842 60.9554C154.24 61.1198 154.681 61.202 155.166 61.202C155.659 61.202 156.087 61.1285 156.451 60.9814C156.823 60.8256 157.121 60.6526 157.346 60.4622L157.982 61.812ZM161.36 59.1514C161.36 59.5234 161.456 59.8652 161.646 60.1767C161.845 60.4795 162.105 60.7261 162.425 60.9165C162.745 61.0982 163.104 61.189 163.502 61.189C163.917 61.189 164.289 61.0982 164.618 60.9165C164.947 60.7261 165.206 60.4795 165.397 60.1767C165.587 59.8652 165.682 59.5234 165.682 59.1514V53.1034H167.175V59.1903C167.175 59.8739 167.01 60.4795 166.682 61.0073C166.353 61.5265 165.912 61.9331 165.358 62.2273C164.804 62.5128 164.185 62.6556 163.502 62.6556C162.827 62.6556 162.213 62.5128 161.659 62.2273C161.105 61.9331 160.664 61.5265 160.335 61.0073C160.015 60.4795 159.855 59.8739 159.855 59.1903V53.1034H161.36V59.1514ZM172.291 53.1034C173.009 53.1034 173.624 53.2246 174.134 53.4668C174.645 53.7091 175.034 54.0552 175.302 54.5051C175.579 54.955 175.717 55.5001 175.717 56.1404C175.717 56.5124 175.657 56.8845 175.536 57.2565C175.423 57.6286 175.242 57.966 174.991 58.2689C174.748 58.5717 174.42 58.8183 174.004 59.0086C173.598 59.1903 173.096 59.2812 172.499 59.2812H171.136V62.5518H169.618V53.1034H172.291ZM172.499 57.8146C172.828 57.8146 173.104 57.7584 173.329 57.6459C173.554 57.5334 173.727 57.3906 173.849 57.2176C173.978 57.0446 174.069 56.8672 174.121 56.6855C174.182 56.4951 174.212 56.3264 174.212 56.1793C174.212 56.0236 174.186 55.8549 174.134 55.6732C174.082 55.4828 173.996 55.3054 173.874 55.141C173.753 54.968 173.585 54.8296 173.368 54.7257C173.152 54.6133 172.875 54.557 172.538 54.557H171.136V57.8146H172.499ZM175.64 62.5518L179.819 52.7141H179.91L184.089 62.5518H182.35L179.404 55.0891L180.494 54.3494L177.133 62.5518H175.64ZM178.262 59.0476H181.493L182.012 60.3324H177.807L178.262 59.0476ZM194.007 62.8892L186.752 55.8549L187.194 56.0366L187.233 62.5518H185.701V52.779H185.766L192.917 59.8133L192.567 59.7095L192.541 53.1034H194.046V62.8892H194.007ZM204.166 61.6822C204.045 61.8033 203.864 61.9201 203.621 62.0326C203.388 62.1451 203.124 62.2489 202.83 62.3441C202.535 62.4393 202.233 62.5128 201.921 62.5647C201.61 62.6253 201.315 62.6556 201.039 62.6556C200.277 62.6556 199.589 62.5388 198.975 62.3052C198.369 62.0716 197.846 61.7514 197.405 61.3448C196.972 60.9294 196.639 60.4406 196.405 59.8782C196.18 59.3158 196.068 58.7058 196.068 58.0482C196.068 57.2263 196.198 56.5038 196.457 55.8808C196.717 55.2492 197.071 54.7214 197.521 54.2974C197.971 53.8648 198.486 53.5404 199.066 53.3241C199.654 53.1077 200.273 52.9996 200.922 52.9996C201.493 52.9996 202.021 53.0645 202.505 53.1943C202.998 53.3241 203.418 53.4884 203.764 53.6875L203.271 55.0891C203.106 54.994 202.894 54.9031 202.635 54.8166C202.375 54.7214 202.111 54.6479 201.843 54.5959C201.584 54.544 201.341 54.5181 201.116 54.5181C200.571 54.5181 200.082 54.5959 199.65 54.7517C199.226 54.8988 198.862 55.1194 198.56 55.4136C198.257 55.7078 198.023 56.0668 197.859 56.4908C197.703 56.9061 197.625 57.382 197.625 57.9184C197.625 58.403 197.707 58.8442 197.872 59.2422C198.045 59.6403 198.283 59.982 198.586 60.2675C198.897 60.5531 199.26 60.7737 199.676 60.9294C200.1 61.0765 200.567 61.1501 201.077 61.1501C201.372 61.1501 201.657 61.1241 201.934 61.0722C202.211 61.0203 202.445 60.9381 202.635 60.8256V59.2552H200.87V57.8016H204.166V61.6822ZM217.627 61.812C217.497 61.9072 217.294 62.024 217.017 62.1624C216.74 62.3008 216.412 62.422 216.031 62.5258C215.659 62.621 215.244 62.6642 214.785 62.6556C214.05 62.6469 213.388 62.5171 212.799 62.2662C212.211 62.0067 211.713 61.6606 211.307 61.228C210.9 60.7867 210.584 60.2848 210.359 59.7224C210.143 59.1514 210.035 58.5457 210.035 57.9055C210.035 57.1873 210.147 56.5297 210.372 55.9327C210.597 55.3357 210.917 54.8209 211.333 54.3883C211.748 53.947 212.241 53.6053 212.812 53.363C213.383 53.1207 214.006 52.9996 214.681 52.9996C215.278 52.9996 215.81 53.0818 216.278 53.2462C216.753 53.4019 217.151 53.5793 217.472 53.7783L216.875 55.2059C216.632 55.0329 216.329 54.8642 215.966 54.6998C215.603 54.5354 215.192 54.4532 214.733 54.4532C214.318 54.4532 213.92 54.5397 213.539 54.7128C213.158 54.8771 212.825 55.1151 212.54 55.4266C212.254 55.7294 212.025 56.0841 211.852 56.4908C211.687 56.8975 211.605 57.3387 211.605 57.8146C211.605 58.3078 211.679 58.762 211.826 59.1774C211.982 59.584 212.198 59.9388 212.475 60.2416C212.76 60.5444 213.098 60.7824 213.487 60.9554C213.885 61.1198 214.326 61.202 214.811 61.202C215.304 61.202 215.732 61.1285 216.096 60.9814C216.468 60.8256 216.766 60.6526 216.991 60.4622L217.627 61.812ZM219.643 53.1034H221.161V62.5518H219.643V53.1034ZM226.423 53.1034C226.942 53.1034 227.418 53.1726 227.85 53.3111C228.283 53.4409 228.651 53.6355 228.954 53.8951C229.256 54.1547 229.49 54.4748 229.654 54.8555C229.827 55.2276 229.914 55.6559 229.914 56.1404C229.914 56.5124 229.858 56.8845 229.745 57.2565C229.633 57.6286 229.447 57.966 229.187 58.2689C228.936 58.5717 228.603 58.814 228.188 58.9957C227.772 59.1774 227.258 59.2682 226.643 59.2682H225.281V62.5518H223.762V53.1034H226.423ZM226.63 57.8146C226.968 57.8146 227.249 57.7627 227.474 57.6589C227.699 57.5464 227.872 57.408 227.993 57.2436C228.123 57.0792 228.214 56.9061 228.266 56.7244C228.326 56.5341 228.357 56.3567 228.357 56.1923C228.357 56.0366 228.331 55.8678 228.279 55.6861C228.227 55.4958 228.14 55.3184 228.019 55.154C227.898 54.981 227.725 54.8382 227.5 54.7257C227.284 54.6133 227.011 54.557 226.682 54.557H225.281V57.8146H226.63ZM228.266 58.7101L230.68 62.5518H228.928L226.462 58.7491L228.266 58.7101ZM232.457 53.1034H238.725V54.557H233.975V57.0748H238.206V58.5414H233.975V61.0982H238.907V62.5518H232.457V53.1034ZM243.582 53.1034C244.542 53.1034 245.299 53.2981 245.853 53.6875C246.416 54.0768 246.697 54.6738 246.697 55.4785C246.697 56.0149 246.571 56.4735 246.32 56.8542C246.078 57.2263 245.736 57.5161 245.295 57.7238C244.854 57.9228 244.339 58.0309 243.751 58.0482L243.517 57.2436C244.218 57.2522 244.841 57.3647 245.386 57.581C245.931 57.7887 246.364 58.0872 246.684 58.4765C247.004 58.8572 247.164 59.3115 247.164 59.8393C247.164 60.3324 247.073 60.7521 246.891 61.0982C246.71 61.4356 246.467 61.7125 246.165 61.9288C245.862 62.1451 245.52 62.3052 245.139 62.409C244.759 62.5042 244.361 62.5518 243.945 62.5518H240.999V53.1034H243.582ZM243.828 57.1268C244.278 57.1268 244.607 56.997 244.815 56.7374C245.031 56.4692 245.139 56.1577 245.139 55.8029C245.139 55.3703 245.005 55.0545 244.737 54.8555C244.469 54.6565 244.105 54.557 243.647 54.557H242.518V57.1268H243.828ZM243.88 61.1501C244.201 61.1501 244.49 61.1068 244.75 61.0203C245.01 60.9251 245.213 60.7824 245.36 60.592C245.516 60.393 245.594 60.1464 245.594 59.8522C245.594 59.5234 245.503 59.2682 245.321 59.0865C245.148 58.9048 244.923 58.775 244.646 58.6971C244.369 58.6193 244.079 58.5803 243.777 58.5803H242.518V61.1501H243.88ZM248.59 57.8406C248.59 57.183 248.716 56.5644 248.966 55.9846C249.217 55.4049 249.563 54.8901 250.005 54.4402C250.446 53.9903 250.956 53.6399 251.536 53.3889C252.125 53.1294 252.752 52.9996 253.418 52.9996C254.076 52.9996 254.694 53.1294 255.274 53.3889C255.862 53.6399 256.377 53.9903 256.818 54.4402C257.268 54.8901 257.619 55.4049 257.87 55.9846C258.129 56.5644 258.259 57.183 258.259 57.8406C258.259 58.5068 258.129 59.1298 257.87 59.7095C257.619 60.2892 257.268 60.804 256.818 61.2539C256.377 61.6952 255.862 62.0413 255.274 62.2922C254.694 62.5345 254.076 62.6556 253.418 62.6556C252.743 62.6556 252.116 62.5345 251.536 62.2922C250.956 62.0413 250.446 61.6995 250.005 61.2669C249.563 60.8256 249.217 60.3151 248.966 59.7354C248.716 59.1471 248.59 58.5154 248.59 57.8406ZM250.147 57.8406C250.147 58.3078 250.23 58.7447 250.394 59.1514C250.567 59.5581 250.805 59.9171 251.108 60.2286C251.411 60.5314 251.761 60.7694 252.159 60.9424C252.557 61.1155 252.99 61.202 253.457 61.202C253.907 61.202 254.327 61.1155 254.716 60.9424C255.114 60.7694 255.46 60.5314 255.754 60.2286C256.048 59.9171 256.278 59.5581 256.442 59.1514C256.615 58.7447 256.702 58.3078 256.702 57.8406C256.702 57.3647 256.615 56.9234 256.442 56.5168C256.269 56.1101 256.035 55.751 255.741 55.4395C255.447 55.1281 255.101 54.8858 254.703 54.7128C254.305 54.5397 253.877 54.4532 253.418 54.4532C252.959 54.4532 252.531 54.5397 252.133 54.7128C251.735 54.8858 251.385 55.1281 251.082 55.4395C250.788 55.751 250.558 56.1144 250.394 56.5297C250.23 56.9364 250.147 57.3733 250.147 57.8406ZM268.583 62.8892L261.328 55.8549L261.769 56.0366L261.808 62.5518H260.277V52.779H260.342L267.493 59.8133L267.142 59.7095L267.116 53.1034H268.622V62.8892H268.583Z" fill="#FCFCFC"/>
</svg>
