<svg width="95" height="96" viewBox="0 0 95 96" fill="none" xmlns="http://www.w3.org/2000/svg">
<path d="M75.2284 44.2012C75.2284 28.936 62.8534 16.561 47.5882 16.561C32.3229 16.561 19.948 28.936 19.948 44.2012M63.3826 58.0213V65.9185C63.3826 67.7532 63.3826 68.6706 63.5343 69.4335C64.1574 72.5662 66.6046 75.015 69.7373 75.6382C70.5002 75.7899 71.4193 75.7899 73.2541 75.7899C75.0888 75.7899 76.0062 75.7899 76.769 75.6382C79.9018 75.015 82.352 72.5662 82.9752 69.4335C83.1269 68.6706 83.1255 67.7532 83.1255 65.9185V58.0213C83.1255 56.1866 83.1269 55.2694 82.9752 54.5065C82.352 51.3738 79.9018 48.9247 76.769 48.3016C76.0062 48.1498 75.0888 48.1498 73.2541 48.1498C71.4193 48.1498 70.5002 48.1498 69.7373 48.3016C66.6046 48.9247 64.1574 51.3738 63.5343 54.5065C63.3826 55.2694 63.3826 56.1866 63.3826 58.0213ZM31.7938 58.0213V65.9185C31.7938 67.7532 31.7951 68.6706 31.6434 69.4335C31.0202 72.5662 28.57 75.015 25.4372 75.6382C24.6744 75.7899 23.7552 75.7899 21.9205 75.7899C20.0858 75.7899 19.1684 75.7899 18.4056 75.6382C15.2728 75.015 12.8257 72.5662 12.2025 69.4335C12.0508 68.6706 12.0508 67.7532 12.0508 65.9185V58.0213C12.0508 56.1866 12.0508 55.2694 12.2025 54.5065C12.8257 51.3738 15.2728 48.9247 18.4056 48.3016C19.1684 48.1498 20.0858 48.1498 21.9205 48.1498C23.7553 48.1498 24.6744 48.1498 25.4372 48.3016C28.57 48.9247 31.0202 51.3738 31.6434 54.5065C31.7951 55.2694 31.7938 56.1866 31.7938 58.0213Z" stroke="#FCFCFC" stroke-width="7.8972" stroke-linecap="round" stroke-linejoin="round"/>
</svg>
