<svg width="148" height="80" viewBox="0 0 148 80" fill="none" xmlns="http://www.w3.org/2000/svg">
<path d="M73.359 0.397221C72.5476 2.97415 70.4955 8.07868 68.5854 12.2692C62.4589 25.7133 53.2672 38.8953 42.9279 49.0646L38.252 53.664L39.9097 50.319C42.474 45.1459 43.1094 42.3624 43.0608 36.5207C43.0302 32.8031 42.8097 30.8534 42.2112 28.9944L41.4031 26.4856L39.4306 30.2893C32.9977 42.6944 23.124 52.6492 10.8613 59.0934C9.24761 59.9418 7.83302 60.7375 7.71775 60.8621C7.60249 60.9867 9.09798 60.9545 11.0411 60.7906C15.2685 60.434 20.5044 58.9839 24.6128 57.0316C26.2646 56.2468 27.6767 55.6652 27.7509 55.7392C27.9693 55.9566 25.4276 61.3438 24.0633 63.5557C23.3722 64.6763 22.8067 65.7028 22.8067 65.837C22.8067 66.2957 28.0422 65.4845 31.6086 64.4731C39.2814 62.2971 48.1235 56.7849 52.1984 51.6373C53.2073 50.3629 54.1528 49.31 54.2995 49.2971C54.4462 49.2841 54.7929 50.5435 55.0699 52.096C55.7263 55.7726 55.9044 56.3819 56.3231 56.3819C57.5692 56.3819 68.5272 37.1082 72.2047 28.4483L73.1465 26.2301L75.1571 30.3315C78.8124 37.788 83.3312 44.1022 88.9824 49.6491C94.1001 54.673 101.671 60.4118 102.504 59.8983C102.701 59.7767 102.862 58.8463 102.862 57.8298V55.9825L106.344 58.2467C113.795 63.0916 120.338 66.0222 128.43 68.1397C131.081 68.8333 133.58 69.4948 133.983 69.6094C135.729 70.1065 134.477 68.8693 131.678 67.3327C123.504 62.8449 113.329 53.7238 107.8 45.9274C104.978 41.9501 100.048 32.8805 99.1071 29.9352C98.8313 29.073 98.4394 28.3672 98.2361 28.3672C97.501 28.3672 96.0688 34.0604 95.8693 37.7751C95.6999 40.9307 95.832 42.0952 96.687 44.9878C97.2478 46.8849 97.6577 48.4374 97.5978 48.4374C97.2076 48.4374 93.9827 41.4195 93.2195 38.9099C92.5501 36.7084 91.6821 35.084 90.0914 33.0561C83.464 24.6044 77.8798 13.8163 74.9987 3.89822C73.8435 -0.0781927 73.6432 -0.506357 73.359 0.397221Z" fill="#FFAA33"/>
<path d="M71.9163 51.5913C70.3257 57.7441 69.2921 61.5775 69.1982 61.6712C69.1383 61.731 68.6429 60.4712 68.0967 58.8718C67.551 57.2725 66.9672 55.9637 66.7995 55.9637C66.6318 55.9637 66.066 57.0458 65.5421 58.368C65.0186 59.6901 64.4657 60.9156 64.3144 61.0912C64.1627 61.2669 63.7113 60.3729 63.3106 59.1051C62.9099 57.8374 62.4329 56.8 62.251 56.8C62.0687 56.8 61.3884 58.1171 60.7388 59.7269C60.1465 61.1948 59.9129 61.9397 59.4061 62.3297C58.8058 62.7917 57.8223 62.7556 55.4052 62.8332C54.6248 62.8578 54.3008 62.3908 53.4143 59.9652C52.8321 58.3713 52.1674 57.0977 51.9369 57.1349C51.7063 57.1717 50.9464 58.5699 50.2486 60.2416L48.9794 63.281L46.8955 63.5912C45.7491 63.7618 41.5108 64.3752 37.4766 64.9543C33.4424 65.5335 27.916 66.4977 25.1954 67.0968C22.4752 67.6964 20.1905 68.1175 20.1184 68.0335C20.0463 67.9494 19.6158 66.7515 19.1619 65.3716C18.7076 63.9918 18.1631 62.8988 17.9519 62.9431C17.7402 62.9875 17.0415 64.3046 16.3985 65.8701C15.756 67.4355 15.0015 68.932 14.722 69.1954C14.2857 69.6069 6.37525 72.1136 2.44332 73.0861C1.73288 73.2617 0.789816 73.633 0.347625 73.9107C-0.318805 74.3301 -0.099177 74.3731 1.64025 74.1653C29.4878 70.8353 44.0273 70.0141 70.1803 70.2943C90.6493 70.5138 100.982 71.0866 117.37 72.9109C127.044 73.9876 143.281 76.2066 146.083 76.8347C146.978 77.0354 147.71 77.0634 147.71 76.897C147.71 76.731 143.419 75.1693 138.175 73.4269C129.71 70.6146 115.664 66.9405 110.407 66.1636C107.984 65.8052 107.66 65.5226 106.833 63.0397C106.456 61.9074 106.012 60.9813 105.846 60.9813C105.679 60.9813 105.156 61.8957 104.682 63.0138L103.822 65.0463L101.211 64.652C99.7748 64.435 96.6023 64.0378 94.1608 63.7694L89.7213 63.281L88.5842 60.145C87.9584 58.4202 87.2895 57.0383 87.0971 57.0739C86.9047 57.1094 86.2395 58.3324 85.6184 59.7917L84.4897 62.4447H82.6735H80.8574L79.7605 59.3088C79.1574 57.584 78.4972 56.1983 78.2935 56.2292C78.0898 56.2606 77.4385 57.4343 76.8458 58.8375C76.2527 60.2412 75.6727 61.4843 75.5561 61.6005C75.4396 61.7168 74.8105 59.4141 74.1579 56.4835C72.6913 49.8996 72.4755 49.4284 71.9163 51.5913Z" fill="#5C6B28"/>
<path d="M47.1168 74.6508C41.8788 74.8966 25.9339 76.0565 24.0641 76.3275L22.178 76.6009L23.645 76.9116C24.4519 77.0822 28.3184 77.5145 32.2373 77.8725C58.3434 80.2541 86.7614 80.5702 112.477 78.7652C124.272 77.9373 124.7 77.7504 116.694 76.9212C109.082 76.1326 97.5018 75.2341 89.2402 74.7908C82.1433 74.4099 54.2178 74.3171 47.1168 74.6508Z" fill="#5C6B28"/>
</svg>
