<svg width="53" height="53" viewBox="0 0 53 53" fill="none" xmlns="http://www.w3.org/2000/svg">
<path d="M26.6525 23.8219C26.4333 23.8 26.1703 23.8 25.9292 23.8219C20.7128 23.6466 16.5703 19.3726 16.5703 14.1124C16.5703 8.7425 20.91 4.38086 26.3018 4.38086C31.6717 4.38086 36.0333 8.7425 36.0333 14.1124C36.0114 19.3726 31.8689 23.6466 26.6525 23.8219Z" stroke="#5C6B28" stroke-width="3.28767" stroke-linecap="round" stroke-linejoin="round"/>
<path d="M15.6929 31.9089C10.3888 35.4595 10.3888 41.2458 15.6929 44.7746C21.7203 48.8075 31.6052 48.8075 37.6326 44.7746C42.9367 41.2239 42.9367 35.4376 37.6326 31.9089C31.6272 27.8979 21.7422 27.8979 15.6929 31.9089Z" stroke="#5C6B28" stroke-width="3.28767" stroke-linecap="round" stroke-linejoin="round"/>
</svg>
